<svg width="17" height="18" viewBox="0 0 17 18" fill="none" xmlns="http://www.w3.org/2000/svg">
<path d="M12.0416 15.5312V14.1146C12.0416 13.3631 11.7431 12.6425 11.2118 12.1111C10.6804 11.5798 9.95976 11.2813 9.20831 11.2812H3.54165C2.7902 11.2813 2.06953 11.5798 1.53818 12.1111C1.00682 12.6425 0.708313 13.3631 0.708313 14.1146V15.5312" stroke="#444444" stroke-width="1.41667" stroke-linecap="round" stroke-linejoin="round"/>
<path d="M6.37502 8.44792C7.93983 8.44792 9.20835 7.17939 9.20835 5.61458C9.20835 4.04978 7.93983 2.78125 6.37502 2.78125C4.81021 2.78125 3.54169 4.04978 3.54169 5.61458C3.54169 7.17939 4.81021 8.44792 6.37502 8.44792Z" stroke="#444444" stroke-width="1.41667" stroke-linecap="round" stroke-linejoin="round"/>
<path d="M16.2917 15.5313V14.1146C16.2912 13.4868 16.0822 12.877 15.6976 12.3808C15.313 11.8847 14.7745 11.5303 14.1667 11.3733" stroke="#444444" stroke-width="1.41667" stroke-linecap="round" stroke-linejoin="round"/>
<path d="M11.3333 2.87334C11.9428 3.02938 12.483 3.38383 12.8688 3.88081C13.2545 4.37778 13.4639 4.98901 13.4639 5.61813C13.4639 6.24725 13.2545 6.85848 12.8688 7.35545C12.483 7.85242 11.9428 8.20687 11.3333 8.36292" stroke="#444444" stroke-width="1.41667" stroke-linecap="round" stroke-linejoin="round"/>
</svg>
