<?xml version="1.0" encoding="UTF-8"?>
<svg version="1.1" xmlns="http://www.w3.org/2000/svg" width="465" height="469">
<path d="M0 0 C0.94875 0.51691406 1.8975 1.03382812 2.875 1.56640625 C9.07834622 5.1236376 14.56532108 9.36715896 20 14 C20.93714844 14.77859375 21.87429688 15.5571875 22.83984375 16.359375 C47.72397036 37.94087771 61.84974617 68.91029932 64.65820312 101.45727539 C66.49140194 127.95453984 60.75458258 154.09713369 46.80786133 176.72290039 C44.6017396 180.13560334 44.6017396 180.13560334 44.24329662 184.0368166 C45.52663075 187.36628536 48.22255548 189.56618236 50.74145508 192.00268555 C51.33989731 192.59353439 51.93833954 193.18438324 52.55491638 193.7931366 C53.85525506 195.07536621 55.15896506 196.35418379 56.46561623 197.62998009 C58.53711183 199.65389553 60.59819703 201.68788995 62.65666199 203.72505188 C68.51116761 209.51539339 74.38352666 215.28746848 80.26391602 221.05151367 C83.86132956 224.57916474 87.44626289 228.11912122 91.02414513 231.66657448 C92.38642572 233.01214546 93.75349249 234.35288951 95.12549782 235.68854332 C97.05212029 237.56436661 98.96253189 239.45543375 100.87036133 241.3503418 C101.43415497 241.89144592 101.99794861 242.43255005 102.5788269 242.99005127 C107.41979613 247.85438912 110.40972664 253.41929764 111.53125 260.22265625 C111.44061043 268.45952747 109.96334115 273.58076021 104.5625 279.8125 C99.40275334 284.21716178 95.0527546 286.10627643 88.3125 286.3125 C87.52488281 286.34988281 86.73726563 286.38726562 85.92578125 286.42578125 C78.12405794 285.29041698 72.46185454 281.19964518 67.10327148 275.67089844 C66.47772873 275.04608582 65.85218597 274.42127319 65.20768738 273.77752686 C63.1667258 271.733114 61.14400025 269.67164091 59.12109375 267.609375 C57.70015954 266.179104 56.2781089 264.74994134 54.85499573 263.32183838 C51.13014658 259.57798811 47.42056499 255.81936402 43.71405029 252.05737305 C39.92205644 248.21403849 36.11569452 244.38499148 32.31054688 240.5546875 C24.85963301 233.05030748 17.42478342 225.53022804 10 218 C5.93748198 219.56583808 2.41467313 221.49004544 -1.3125 223.75 C-27.98696512 239.33699304 -63.04427751 243.97240824 -92.85546875 236.19140625 C-94.23845117 235.79942769 -95.62002852 235.40245035 -97 235 C-97.65564941 234.81808105 -98.31129883 234.63616211 -98.98681641 234.44873047 C-128.62209421 226.09771665 -156.39578893 205.34960352 -171.9921875 178.703125 C-183.77378684 157.30125662 -190.42753648 136.38259713 -190.3125 111.75 C-190.30686035 110.47729248 -190.3012207 109.20458496 -190.29541016 107.89331055 C-190.17197568 98.29536333 -189.50631515 89.27059665 -187 80 C-186.81727539 79.30503418 -186.63455078 78.61006836 -186.44628906 77.89404297 C-181.26263728 58.90008737 -171.80960418 41.8647276 -159 27 C-158.13587829 25.94469806 -157.27259019 24.88871295 -156.41015625 23.83203125 C-153.2469516 20.11513762 -149.73430525 17.12299549 -146 14 C-145.31679687 13.39414063 -144.63359375 12.78828125 -143.9296875 12.1640625 C-126.36152984 -2.83314526 -105.49462012 -11.08766135 -83 -15 C-81.91332031 -15.19464844 -80.82664062 -15.38929687 -79.70703125 -15.58984375 C-51.30335183 -18.73250586 -24.90662585 -13.63302699 0 0 Z M-145.36230469 42.09619141 C-149.58073108 47.00008065 -152.89143419 52.34586082 -156 58 C-156.35674805 58.63550781 -156.71349609 59.27101562 -157.08105469 59.92578125 C-162.30240349 69.3381327 -165.80005977 78.41712962 -168 89 C-168.22429687 90.05445313 -168.44859375 91.10890625 -168.6796875 92.1953125 C-173.81741213 120.27684852 -167.23185017 148.17761978 -152 172 C-149.23736904 175.92584399 -146.26804293 179.48711998 -143 183 C-142.55430664 183.48662109 -142.10861328 183.97324219 -141.64941406 184.47460938 C-122.44047022 205.27880524 -95.85847608 217.81436194 -67.51953125 219.28515625 C-40.73052057 220.09641766 -14.58827024 211.13772215 6 194 C6.92296875 193.25234375 7.8459375 192.5046875 8.796875 191.734375 C25.85336406 177.18335891 37.01184832 156.67246832 42 135 C42.24492187 133.94941406 42.48984375 132.89882812 42.7421875 131.81640625 C47.85765689 104.87259828 42.19282677 77.25810535 28 54 C25.14819052 49.87408366 22.13044755 45.91739925 19 42 C18.49855469 41.34386719 17.99710938 40.68773437 17.48046875 40.01171875 C13.08457502 34.50101624 7.55494418 30.28655253 2 26 C1.21753906 25.39027344 0.43507813 24.78054687 -0.37109375 24.15234375 C-46.08043692 -9.68644487 -108.23426019 1.30432943 -145.36230469 42.09619141 Z " fill="#0A0A0A" transform="translate(272,102)"/>
<path d="M0 0 C0.66 0 1.32 0 2 0 C1.55966813 5.19591612 1.11696661 8.66335081 -2 13 C-4.32590854 9.36576791 -4.16265833 6.22911669 -4 2 C-3.01 2 -2.02 2 -1 2 C-0.67 1.34 -0.34 0.68 0 0 Z " fill="#2B2B2B" transform="translate(381,366)"/>
<path d="M0 0 C1.12894876 0.93274109 2.25300876 1.87140122 3.375 2.8125 C4.00148438 3.33457031 4.62796875 3.85664063 5.2734375 4.39453125 C7 6 7 6 9 9 C3.6 9.36 3.6 9.36 1.125 7.875 C-0.4682099 5.21965017 -0.20214032 3.03210482 0 0 Z " fill="#303030" transform="translate(345,317)"/>
<path d="M0 0 C0.66 0.33 1.32 0.66 2 1 C2 1.99 2 2.98 2 4 C3.32 4 4.64 4 6 4 C6 3.34 6 2.68 6 2 C6.66 2 7.32 2 8 2 C6.125 7.75 6.125 7.75 5 10 C3.82737096 8.88121617 2.66204862 7.75476949 1.5 6.625 C0.8503125 5.99851563 0.200625 5.37203125 -0.46875 4.7265625 C-2 3 -2 3 -2 1 C-1.34 0.67 -0.68 0.34 0 0 Z " fill="#3F3F3F" transform="translate(287,136)"/>
<path d="M0 0 C0.99 0.66 1.98 1.32 3 2 C1.68 4.64 0.36 7.28 -1 10 C-1.66 9.01 -2.32 8.02 -3 7 C-3.99 7 -4.98 7 -6 7 C-4.02 4.69 -2.04 2.38 0 0 Z " fill="#323232" transform="translate(316,277)"/>
<path d="M0 0 C-1.12073862 0.83905565 -2.24674547 1.67107831 -3.375 2.5 C-4.00148437 2.9640625 -4.62796875 3.428125 -5.2734375 3.90625 C-7 5 -7 5 -9 5 C-8.67 3.68 -8.34 2.36 -8 1 C-7.34 1.33 -6.68 1.66 -6 2 C-6 1.34 -6 0.68 -6 0 C-3.50907189 -1.24546405 -2.58919267 -0.7767578 0 0 Z " fill="#4F4F4F" transform="translate(154,122)"/>
<path d="M0 0 C1.32 0.99 2.64 1.98 4 3 C1.03 5.475 1.03 5.475 -2 8 C-2 6.35 -2 4.7 -2 3 C-1.34 3 -0.68 3 0 3 C0 2.01 0 1.02 0 0 Z " fill="#3B3B3B" transform="translate(128,137)"/>
<path d="M0 0 C0.99 0 1.98 0 3 0 C3.33 2.31 3.66 4.62 4 7 C2.02 5.35 0.04 3.7 -2 2 C-1.34 1.34 -0.68 0.68 0 0 Z " fill="#272727" transform="translate(123,304)"/>
<path d="M0 0 C2.29633824 3.44450737 2.54016485 5.93812283 3 10 C1.68 9.01 0.36 8.02 -1 7 C-0.67 4.69 -0.34 2.38 0 0 Z " fill="#525252" transform="translate(330,174)"/>
<path d="M0 0 C2 1 2 1 2 1 Z M-2 1 C-1.34 1 -0.68 1 0 1 C0 2.32 0 3.64 0 5 C0.99 5.33 1.98 5.66 3 6 C1.02 6.99 1.02 6.99 -1 8 C-1.33 5.69 -1.66 3.38 -2 1 Z " fill="#2C2C2C" transform="translate(142,122)"/>
<path d="M0 0 C0.33 1.65 0.66 3.3 1 5 C-3.455 4.01 -3.455 4.01 -8 3 C-8 2.67 -8 2.34 -8 2 C-2.25 0 -2.25 0 0 0 Z " fill="#484848" transform="translate(243,107)"/>
<path d="M0 0 C1.98 1.65 3.96 3.3 6 5 C2.79937313 6.60031344 0.27728194 5.03173691 -3 4 C-2.34 3.67 -1.68 3.34 -1 3 C-0.67 2.01 -0.34 1.02 0 0 Z " fill="#404040" transform="translate(174,332)"/>
</svg>
